<?xml version="1.0" encoding="utf-8"?>
<!-- Generator: Adobe Illustrator 24.0.2, SVG Export Plug-In . SVG Version: 6.00 Build 0)  -->
<svg version="1.1" id="Layer_1" xmlns="http://www.w3.org/2000/svg" xmlns:xlink="http://www.w3.org/1999/xlink" x="0px" y="0px"
	 viewBox="0 0 491 524" enable-background="new 0 0 491 524" xml:space="preserve">
<g id="INi1EE.tif">
	<g>
		<path fill="none" d="M249.5,0C330,0,410.5,0,491,0c0,9.3,0,18.7,0,28c-4.5-11.5-13.8-16.2-25.1-18.4c-15.8-3-31.5-1.7-47.1,0.7
			c-50.1,7.9-97.2,25.5-143.4,45.6c-1.2,0.5-2.7,2.2-2.7,3.4c-0.3,4.9-0.1,9.9-0.1,15.2c1.8-0.6,3.1-1,4.3-1.4
			c20.8-8,41.9-15.2,64-18.5c9.7-1.5,19.5-2.5,29.1,0.6c8.3,2.7,11.4,8.5,8.5,16.7c-1.6,4.5-3.9,8.8-6.7,12.7
			c-9.3,13.2-21.2,23.9-33.8,33.7c-48,37.4-101.2,65.4-158.4,85.7c-7.7,2.7-7.8,2.7-7.8,11.2c0,103,0,205.9,0,308.9
			c-57.2,0-114.4,0-171.7,0C0,349.3,0,174.7,0,0c82.8,0,165.7,0,248.5,0c-0.9,0.6-1.8,1.4-2.8,1.9c-23.2,11.9-46.3,23.9-69.6,35.6
			c-3.2,1.6-4.5,3.3-4.5,7.1c0.1,43.6,0.1,87.3,0.1,130.9c0,1.6,0,3.3,0,5.7c26.5-7.6,51.7-16.6,75-30.6c2.8-1.7,2.9-4,2.9-6.8
			C249.5,95.9,249.5,48,249.5,0z M134.3,131.7c-2.2,1.4-3.6,2.2-5,3.1c-17,12.2-34.4,24-51,36.7c-21.9,16.8-42.5,35.3-59.6,57.2
			c-7.6,9.7-14.3,20-17.1,32.4c-2.9,13.2,2.1,22.9,14.6,28c10.1,4.1,20.7,4.7,31.4,4.3c33.7-1.3,65.8-10,97.7-20.2
			c2.9-0.9,3.3-2.4,3.3-5.1c-0.1-17.2,0-34.3-0.1-51.5c0-1.1-0.2-2.3-0.3-3.7c-5.1,0.9-9.9,1.9-14.8,2.6c-9.2,1.2-18.5,2.3-27.7-0.6
			c-8.3-2.6-11.7-8.3-9.1-16.4c1.5-4.5,3.6-9.1,6.6-12.7c8.1-9.9,16.1-20.1,25.5-28.7C137.4,149.5,134,141.1,134.3,131.7z"/>
		<path fill="none" d="M491,39c0,161.6,0,323.1,0,485c-106.1,0-212.2,0-318.4,0c1.5-1,2.9-2.1,4.4-2.8
			c21.7-10.4,43.4-20.9,65.3-30.8c5.5-2.5,7.3-5.3,7.3-11.4c-0.3-81.2-0.1-162.3-0.3-243.5c0-3.7,1-5.6,4.4-7.1
			c7.8-3.6,15.5-7.6,23.2-11.6c55.4-29.2,108.8-61.7,156.2-103C457.3,92.8,480.9,71,491,39z"/>
		<path fill="#FF0000" d="M491,39c-10.1,32-33.7,53.8-57.8,74.7c-47.5,41.3-100.8,73.8-156.2,103c-7.6,4-15.3,8-23.2,11.6
			c-3.4,1.5-4.4,3.4-4.4,7.1c0.1,81.2,0,162.3,0.3,243.5c0,6.1-1.8,8.9-7.3,11.4c-21.9,10-43.6,20.5-65.3,30.8
			c-1.6,0.7-3,1.9-4.4,2.8c-0.3,0-0.7,0-1,0c0-103,0-205.9,0-308.9c0-8.5,0-8.4,7.8-11.2c57.2-20.3,110.4-48.3,158.4-85.7
			c12.6-9.8,24.6-20.5,33.8-33.7c2.7-3.9,5.1-8.3,6.7-12.7c2.9-8.2-0.2-14-8.5-16.7c-9.6-3.1-19.4-2.1-29.1-0.6
			c-22.1,3.4-43.2,10.5-64,18.5c-1.2,0.5-2.5,0.8-4.3,1.4c0-5.4-0.2-10.3,0.1-15.2c0.1-1.2,1.5-2.9,2.7-3.4
			c46.3-20.1,93.3-37.7,143.4-45.6c15.6-2.5,31.4-3.7,47.1-0.7c11.3,2.1,20.7,6.8,25.1,18.4C491,31.7,491,35.3,491,39z"/>
		<path fill="#FF0000" d="M245.7,1.9c1-0.5,1.9-1.3,2.8-1.9c0.3,0,0.7,0,1,0c0,48,0,95.9,0,143.9c0,2.8-0.1,5.1-2.9,6.8
			c-23.3,13.9-48.5,22.9-75,30.6c0-2.4,0-4,0-5.7c0-43.6,0.1-87.3-0.1-130.9"/>
		<path fill="#FF0000" d="M134.3,131.7c-0.3,9.3,3.1,17.8-5.4,25.4c-9.4,8.6-17.4,18.8-25.5,28.7c-3,3.6-5.1,8.2-6.6,12.7
			c-2.7,8.1,0.7,13.8,9.1,16.4c9.1,2.9,18.4,1.8,27.7,0.6c4.9-0.7,9.8-1.7,14.8-2.6c0.1,1.4,0.3,2.5,0.3,3.7c0,17.2,0,34.3,0.1,51.5
			c0,2.6-0.4,4.1-3.3,5.1c-31.9,10.2-64,18.9-97.7,20.2c-10.6,0.4-21.3-0.2-31.4-4.3c-12.6-5.1-17.6-14.8-14.6-28
			c2.8-12.4,9.5-22.6,17.1-32.4c17.1-22,37.7-40.4,59.6-57.2c16.6-12.7,33.9-24.5,51-36.7C130.6,133.9,132.1,133.1,134.3,131.7z"/>
	</g>
</g>
</svg>
